<?xml version="1.0" encoding="UTF-8"?>
<svg id="Layer_2" data-name="Layer 2" xmlns="http://www.w3.org/2000/svg" viewBox="0 0 114.24 122.76">
  <defs>
    <style>
      .cls-1 {
        fill: #2c2e81;
      }

      .cls-2 {
        stroke-width: 2.35px;
      }

      .cls-2, .cls-3 {
        fill: none;
        stroke: #2c2e81;
        stroke-miterlimit: 10;
      }
    </style>
  </defs>
  <g id="datavisualisatie">
    <g>
      <path class="cls-2" d="M108.84,19.96c-1.31-2.72-28.08-28.3-42.57-14.94C50.97,19.13,7.8,46.53,6.05,66.15c-1.13,12.68-12,36.91,2.94,45.28,15.26,8.55,33.96,14.04,41.43,6.79,7.47-7.25,62.49-57.96,62.49-68.83s1.36-18.11-4.08-29.43Z"/>
      <path class="cls-2" d="M49.52,84.26c2.1-10.2-26.77-23.76-33.06-20.83-6.79,3.17-12.61,25.86,4.08,32.15,15.62,5.89,24.53,10.3,28.98-11.32Z"/>
      <ellipse class="cls-2" cx="21.11" cy="103.08" rx="5.26" ry="5.01"/>
      <line class="cls-2" x1="19.24" y1="98.58" x2="21.11" y2="103.08"/>
      <line class="cls-2" x1="25.35" y1="100.62" x2="21.11" y2="103.08"/>
      <line class="cls-2" x1="25.86" y1="104.35" x2="20.94" y2="106.9"/>
      <line class="cls-2" x1="21.11" y1="103.08" x2="20.94" y2="106.9"/>
      <line class="cls-2" x1="17.37" y1="105.37" x2="21.11" y2="103.08"/>
      <line class="cls-2" x1="16.86" y1="99.85" x2="17.37" y2="105.37"/>
      <path class="cls-2" d="M52.01,116.58c7.98,4.84,16.64-3.4,13.08-11.72"/>
      <path class="cls-2" d="M111.53,53.5c3.14,3.06.59,16.3-9.68,13.75"/>
      <ellipse class="cls-2" cx="101.46" cy="37.65" rx="9.34" ry="5.6" transform="translate(3.1 82.77) rotate(-45)"/>
      <ellipse class="cls-2" cx="84.98" cy="58.87" rx="9.34" ry="5.6" transform="translate(-16.74 77.34) rotate(-45)"/>
      <ellipse class="cls-2" cx="64.52" cy="79.42" rx="9.34" ry="5.6" transform="translate(-37.26 68.89) rotate(-45)"/>
      <path class="cls-2" d="M66.79,101.89c-1.87-1.44-18.42-23.18-13.75-26.83,4.67-3.65,13.84-13.16,17.32-7.81s10.53,21.91,9,23.26"/>
      <line class="cls-2" x1="74.77" y1="82.7" x2="72.9" y2="84.23"/>
      <ellipse class="cls-1" cx="20.13" cy="78.74" rx="8.62" ry="3.68" transform="translate(-60.63 69.63) rotate(-69.23)"/>
      <ellipse class="cls-1" cx="38.89" cy="86.3" rx="8.62" ry="3.68" transform="translate(-49.41 120.39) rotate(-86.85)"/>
      <ellipse class="cls-1" cx="64.83" cy="79.23" rx="3.68" ry="5.69" transform="translate(-32.5 47.48) rotate(-32.64)"/>
      <ellipse class="cls-1" cx="86.47" cy="59.95" rx="3.68" ry="4.3" transform="translate(-18.68 56.1) rotate(-32.64)"/>
      <ellipse class="cls-1" cx="100.7" cy="40.17" rx="3.11" ry="3.95" transform="translate(-5.76 60.66) rotate(-32.64)"/>
      <path class="cls-3" d="M10.49,82.17c-.44,3.62,29.6,16.82,34.98,11.89"/>
    </g>
  </g>
</svg>