<?xml version="1.0" encoding="UTF-8"?>
<svg id="Layer_2" data-name="Layer 2" xmlns="http://www.w3.org/2000/svg" viewBox="0 0 166.34 215.91">
  <defs>
    <style>
      .cls-1 {
        fill: #2c2e81;
      }

      .cls-2 {
        stroke-width: 2px;
      }

      .cls-2, .cls-3, .cls-4, .cls-5 {
        fill: none;
        stroke: #2c2e81;
        stroke-miterlimit: 10;
      }

      .cls-3 {
        stroke-width: 1.26px;
      }

      .cls-5 {
        stroke-width: .99px;
      }
    </style>
  </defs>
  <g id="datavisualisatie">
    <g>
      <path class="cls-4" d="M100.13,62.16c-36.62-11.94-37.53,27.11-45.28,26.26,13.64,2.77-14.89,36.51-23.6,23.94,1.58,9.28-58.45,30.11-13.08,68.77,50.55,43.08,55.29-32.32,64.47-28.81-14.53-4.95,7.36-41.43,18.23-29.66-2.38-8.26,39.51-24.23,11.09-52.87-4.18-3.61-7.94-6.37-11.83-7.64Z"/>
      <path class="cls-4" d="M118.86,78.57c26,29.33-13.68,41.72-11.61,50.47-8.63-10.73-31.95,23.12-16.47,28.36-9.71,1.9-8.99,53.46-53.99,35.46"/>
      <path class="cls-4" d="M22.14,184.6c-1.86-1.08-4.87,2.14-1.81,4.08,2.63,1.67,5.48-1.94,1.81-4.08Z"/>
      <path class="cls-4" d="M20.33,188.67c-1.7,1.36-19.92,26.94-19.92,26.94"/>
      <path class="cls-4" d="M138.41,30.97c1.16.85,3.86,4.03,5.86-1.27,1.19.59,1.42,1.24,2.21-.25,2.46-4.67,14.68-9.18,16.53-15.37,1.36-4.56,6.51-12.25-1.75-13.56-5.32,3.17-4.81,4.53-6,3.62s-3,3.88-2.52,4.44c-.74,2.21-.43,2.7,1.39,3.59-.91-.11-16.92,6.74-17.55,11.55s-3.34,3.45,1.84,7.25Z"/>
      <path class="cls-1" d="M74.71,122.36c-1.95,5.31-5.86-1.4-.17-1.15,2.67.12,6.88,3.48,2.42,9.38-5.26,6.96-14.09,18.59-6.92,19.61,1.06-7.13,6.26.16,1.7,1.53-3.82,1.15-12.86-4.14-1.44-16.43,5.01-5.39,9.17-12.23,4.42-12.95Z"/>
      <path class="cls-1" d="M58.65,110.83c-4.3,3.67,3.2,4.6.99-.65-1.03-2.46-5.57-4.11-9.57,2.12-4.71,7.35-10.99,16-14.43,9.62,6.32-3.46-1.1-5.69-1.3-.93-.17,4.08,3.62,9.82,12.85-1.9,4.55-5.78,9.14-12.48,11.46-8.26Z"/>
      <path class="cls-4" d="M15.39,180.62c9.17-10.02,16.53-31.3,20.6-41.77,1.64,2.55,7.78,6.65,9.54,7.39-6.4,5.35-24.03,28.95-27.2,37.1-1.25-1.39-2.21-2.04-2.94-2.72Z"/>
      <path class="cls-4" d="M62.25,102.96c.76,1.02,8.07,3.95,9,7.9,1.61-.98,67.67-80.02,67.67-80.02,0,0,5.39-6.67,5.73-6.75s2.72-4.97-3.06-2.89-10.83,9.17-11.12,9.51S63.06,102.37,62.25,102.96Z"/>
      <path class="cls-4" d="M43.35,144.32c.23-.57,12.11-20.72,12.11-20.72L141.78,24.95l3.62-2.26"/>
      <polyline class="cls-4" points="155.03 14.98 140.2 24.15 52.29 122.08 40.52 142.8"/>
      <polyline class="cls-4" points="37.91 140.98 49.91 119.93 139.18 23.64 151.86 16.29"/>
      <polyline class="cls-4" points="35.99 138.85 48.1 118.57 62.25 102.96"/>
      <polygon class="cls-4" points="63.84 131.73 64.91 129.92 56.71 124.37 56.42 124.77 63.84 131.73"/>
      <polygon class="cls-4" points="56.71 124.37 48.1 118.57 56.42 124.77 56.71 124.37"/>
      <path class="cls-4" d="M145.86,30.3l-3.57-3.17c-.78.43,11.54-11.44,15.79-12.28-.37-1.3-1.25-10.73,6.51-12.45"/>
      <line class="cls-4" x1="154.11" y1="12.18" x2="158.08" y2="14.84"/>
      <path class="cls-4" d="M161.38,18.54c-.94-.67-2.63-1.61-2.97-1.61s-1.36,1.19-1.27,1.53,2.84,2.17,3.14,2.29c-.38.58-.66,3.8,2.06,1.89s3-6.73-.95-4.09Z"/>
      <path class="cls-3" d="M148.68,14.24c-.11-.43-2.13-1.64-2.5-1.8.47-.73.83-4.77-2.58-2.36s-3.75,8.45,1.2,5.14c1.18.84.62.5,1.04.5l2.84-1.47Z"/>
      <path class="cls-3" d="M140.86,18.57c-.11-.43-2.51-1.67-2.89-1.83.47-.73.83-4.77-2.58-2.36s-3.75,8.45,1.2,5.14c1.18.84,1.38,1.1,1.81,1.1l2.46-2.05Z"/>
      <path class="cls-5" d="M155.98,23.3c-.85-.78-3.11-2.56-3.46-2.61s-1.53.94-1.49,1.28,3.25,3.13,3.53,3.29c-.46.5-1.43,4.04,1.83,2.45,2.99-1.46,4.73-6.51-.41-4.42Z"/>
      <path class="cls-4" d="M39.29,60.51c.62,1.84-7.06,5.98-3.67,10.68,3.39,4.7,50.62,90.49,50.62,90.49-.22,1.49,5.17,7.01,4.9,5.03-.52-3.89,1.69-3.18.88-5.04-7.99-10.27-48.38-91.33-56.96-116.53-3.43,1.7.55,4.45,4.22,15.38Z"/>
      <path class="cls-4" d="M38.58,75.95c.88-.46,2.62-.54,1.49-2.21-1.72-2.54-.2-9.57,2.56-2.81,2.14,5.24,1.78,1.34,2.6,3.36,1.36,3.38,34.27,72.2,43.99,85.06.21.27.11.67-.2.82-1.07.52-2.48,1.14-2.92.69"/>
      <line class="cls-4" x1="45.23" y1="74.29" x2="39.29" y2="60.51"/>
      <ellipse class="cls-1" cx="60.49" cy="23.66" rx="5.09" ry="3.96" transform="translate(-1.86 41.88) rotate(-37.65)"/>
      <ellipse class="cls-1" cx="75.21" cy="23.66" rx="5.09" ry="3.96" transform="translate(1.21 50.87) rotate(-37.65)"/>
      <polyline class="cls-2" points="64 23.55 67.39 7.25 82.22 8.83 78.72 23.78"/>
      <ellipse class="cls-1" cx="98.25" cy="40.23" rx="5.09" ry="3.96" transform="translate(2.83 86.78) rotate(-48.27)"/>
      <path class="cls-2" d="M101.68,39.47l.34-16.65s3.36,3.22,6.36,2.05"/>
      <ellipse class="cls-1" cx="140.98" cy="71.41" rx="5.09" ry="3.96" transform="translate(-.18 142.47) rotate(-53.58)"/>
      <path class="cls-2" d="M144.32,70.34l-1.21-16.61s3.64,2.9,6.53,1.45"/>
    </g>
  </g>
</svg>