<?xml version="1.0" encoding="UTF-8"?>
<svg id="Layer_2" data-name="Layer 2" xmlns="http://www.w3.org/2000/svg" viewBox="0 0 90.47 216.76">
  <defs>
    <style>
      .cls-1 {
        fill: none;
      }

      .cls-1, .cls-2 {
        stroke: #2c2e81;
        stroke-miterlimit: 10;
        stroke-width: 2px;
      }

      .cls-3 {
        fill: #fff;
      }

      .cls-4 {
        fill: #fdb831;
      }

      .cls-2 {
        fill: #2c2e81;
      }

      .cls-5 {
        fill: #e8a32e;
      }
    </style>
  </defs>
  <g id="Layer_5" data-name="Layer 5">
    <g>
      <path class="cls-3" d="M87.74,79.62c-.48-.13-.97-.26-1.44-.4.48.15.96.28,1.44.4Z"/>
      <path class="cls-1" d="M81.28,56.37c.64-1.53,1.41-2.95,2.26-4.26.92,1.04,2.29,1.82,3.91,2.08.68.11,1.35.11,1.99.04-.06-4.7-.27-8.91-.71-12.68-4.19-.96-8.36.37-11.95,5.38-13,18.09-3.36,28.36,9.52,32.3-6.76-3.16-9.03-13.26-5.02-22.85Z"/>
      <path class="cls-2" d="M89.45,54.23c-.64.08-1.31.07-1.99-.04-1.62-.26-3-1.04-3.91-2.08-.86,1.3-1.62,2.73-2.26,4.26-4.01,9.59-1.74,19.69,5.02,22.85.48.15.96.28,1.44.4.42.11.84.21,1.26.31.3-9.99.54-18.45.44-25.71Z"/>
      <path class="cls-4" d="M85.89,132.86c.31.75.6,1.51.88,2.28-.28-.77-.58-1.53-.88-2.28Z"/>
      <path class="cls-4" d="M86.78,135.15c.27.75.53,1.51.78,2.27-.25-.76-.5-1.52-.78-2.27Z"/>
      <path class="cls-4" d="M84.73,130.19c.33.72.65,1.45.96,2.19-.31-.74-.62-1.47-.96-2.19Z"/>
      <path class="cls-4" d="M87.74,138c.24.78.48,1.56.69,2.35-.22-.79-.45-1.57-.69-2.35Z"/>
      <path class="cls-5" d="M86.77,135.14s0,0,0,.01c0,0,0,0,0-.01Z"/>
      <polygon class="cls-5" points="84.73 130.18 84.73 130.18 84.73 130.19 84.73 130.18"/>
      <path class="cls-5" d="M87.55,137.43c.06.19.12.38.18.57-.06-.19-.12-.38-.18-.57Z"/>
      <path class="cls-5" d="M85.69,132.38c.07.16.13.32.2.48-.07-.16-.13-.32-.2-.48Z"/>
      <path class="cls-1" d="M9.48,120.04c.37-.65.74-1.29,1.11-1.9-.38.62-.75,1.25-1.11,1.9Z"/>
      <path class="cls-1" d="M10.7,117.97c.42-.68.85-1.35,1.28-2-.43.65-.86,1.31-1.28,2Z"/>
      <path class="cls-1" d="M6.92,125.06c.37-.81.75-1.59,1.14-2.36-.39.77-.77,1.55-1.14,2.36Z"/>
      <path class="cls-1" d="M8.31,122.23c.32-.63.65-1.24.98-1.84-.33.6-.66,1.21-.98,1.84Z"/>
      <path class="cls-1" d="M8.06,122.7c.08-.16.16-.31.25-.47-.08.16-.17.31-.25.47Z"/>
      <path class="cls-1" d="M10.6,118.13c.03-.05.07-.11.1-.16-.03.05-.07.11-.1.16Z"/>
      <path class="cls-1" d="M9.28,120.39c.07-.12.13-.23.2-.35-.07.12-.13.23-.2.35Z"/>
      <path class="cls-1" d="M88.43,140.35c-.22-.79-.45-1.57-.69-2.35-.06-.19-.12-.38-.18-.57-.25-.76-.5-1.52-.78-2.27,0,0,0,0,0-.01-.28-.77-.58-1.53-.88-2.28-.07-.16-.13-.32-.2-.48-.31-.74-.62-1.47-.96-2.19,0,0,0,0,0,0-14.48-31.41-51.56-45.8-72.75-14.21,0,0,0,0,0,0-.43.65-.86,1.31-1.28,2-.03.05-.07.11-.1.16-.38.62-.75,1.25-1.11,1.9-.07.12-.13.23-.2.35-.33.6-.66,1.22-.98,1.84-.08.16-.17.31-.25.47-.39.77-.77,1.55-1.14,2.36,9.49,43.95,20.98,69.59,32.3,81.82,13.68,14.78,27.12,9.93,36.5-5.94,8.13-13.77,13.21-35.84,12.71-60.6Z"/>
      <path class="cls-1" d="M89,79.93c-.91-.21-1.81-.44-2.7-.71-.29-.09-.58-.19-.87-.28-12.43-4.13-21.35-14.33-8.65-32.02,2.03-2.83,4.24-4.48,6.54-5.22,1.77-.56,3.59-.58,5.41-.16-1.09-9.34-3.57-16.11-8.69-21.62-.26-.28-.51-.55-.78-.82C74.26,14.1,29.52.36,10.02,34.62.55,51.26-2.97,79.24,6.92,125.06c1.55-3.38,3.25-6.4,5.06-9.09,21.19-31.59,58.28-17.2,72.75,14.21,1.48,3.22,2.73,6.62,3.7,10.17-.49-24.84.1-44.55.57-60.41Z"/>
      <path class="cls-1" d="M53.16,8.49C46.63.7,38.8-.33,31.33,2.29,18.54,6.77,6.79,21.95,4.41,32.3c-1.35,5.86.31,10.17,6.48,10.11,18.37-.18,50.12-24.54,42.26-33.92Z"/>
    </g>
  </g>
</svg>