<?xml version="1.0" encoding="UTF-8"?>
<svg id="Layer_1" data-name="Layer 1" xmlns="http://www.w3.org/2000/svg" viewBox="0 0 88.47 214.76">
  <defs>
    <style>
      .cls-1 {
        fill: #2c2e81;
      }

      .cls-2 {
        fill: #fff;
      }

      .cls-3 {
        fill: #fdb831;
      }

      .cls-4 {
        fill: none;
      }

      .cls-5 {
        fill: #a64a96;
      }

      .cls-6 {
        fill: #e8a32e;
      }

      .cls-7 {
        fill: #6a2476;
      }

      .cls-8 {
        fill: #fec977;
      }

      .cls-9 {
        fill: #882890;
      }
    </style>
  </defs>
  <path class="cls-2" d="M86.74,78.62c-.48-.13-.97-.26-1.44-.4.48.15.96.28,1.44.4Z"/>
  <path class="cls-2" d="M80.28,55.37c.64-1.53,1.41-2.95,2.26-4.26.92,1.04,2.29,1.82,3.91,2.08.68.11,1.35.11,1.99.04-.06-4.7-.27-8.91-.71-12.68-4.19-.96-8.36.37-11.95,5.38-13,18.09-3.36,28.36,9.52,32.3-6.76-3.16-9.03-13.26-5.02-22.85Z"/>
  <path class="cls-1" d="M88.45,53.23c-.64.08-1.31.07-1.99-.04-1.62-.26-3-1.04-3.91-2.08-.86,1.3-1.62,2.73-2.26,4.26-4.01,9.59-1.74,19.69,5.02,22.85.48.15.96.28,1.44.4.42.11.84.21,1.26.31.3-9.99.54-18.45.44-25.71Z"/>
  <path class="cls-4" d="M75.78,45.92c-12.7,17.68-3.78,27.88,8.65,32.02-.32-13.79-1.05-26.53-2.11-37.23-2.3.73-4.51,2.39-6.54,5.22Z"/>
  <path class="cls-9" d="M84.43,77.94c-12.43-4.13-21.35-14.33-8.65-32.02,2.03-2.83,4.24-4.48,6.54-5.22-.88-8.87-1.99-16.32-3.28-21.78-.26-.28-.51-.55-.78-.82C73.26,13.1,28.52-.64,9.02,33.62c-2.91,17.69-2.54,48.79,1.96,81.35,21.19-31.59,58.28-17.2,72.75,14.21.88-17.4,1.08-35.03.7-51.24Z"/>
  <path class="cls-3" d="M84.89,131.86c.31.75.6,1.51.88,2.28-.28-.77-.58-1.53-.88-2.28Z"/>
  <path class="cls-3" d="M85.78,134.15c.27.75.53,1.51.78,2.27-.25-.76-.5-1.52-.78-2.27Z"/>
  <path class="cls-3" d="M83.73,129.19c.33.72.65,1.45.96,2.19-.31-.74-.62-1.47-.96-2.19Z"/>
  <path class="cls-3" d="M10.98,114.97c4.56,32.97,13.34,67.42,27.24,90.91,13.68,14.78,27.12,9.93,36.5-5.94,4.83-19.37,7.69-44.8,9.01-70.77-14.48-31.41-51.56-45.8-72.75-14.21Z"/>
  <path class="cls-3" d="M86.74,137c.24.78.48,1.56.69,2.35-.22-.79-.45-1.57-.69-2.35Z"/>
  <path class="cls-6" d="M85.77,134.14s0,0,0,.01c0,0,0,0,0-.01Z"/>
  <polygon class="cls-6" points="83.73 129.18 83.73 129.18 83.73 129.19 83.73 129.18"/>
  <path class="cls-6" d="M86.55,136.43c.06.19.12.38.18.57-.06-.19-.12-.38-.18-.57Z"/>
  <path class="cls-6" d="M84.69,131.38c.07.16.13.32.2.48-.07-.16-.13-.32-.2-.48Z"/>
  <path class="cls-6" d="M87.43,139.35c-.22-.79-.45-1.57-.69-2.35-.06-.19-.12-.38-.18-.57-.25-.76-.5-1.52-.78-2.27,0,0,0,0,0-.01-.28-.77-.58-1.53-.88-2.28-.07-.16-.13-.32-.2-.48-.31-.74-.62-1.47-.96-2.19,0,0,0,0,0,0-1.32,25.97-4.19,51.4-9.01,70.77,8.13-13.77,13.21-35.84,12.71-60.6Z"/>
  <path class="cls-7" d="M87.73,40.55c-1.09-9.34-3.57-16.11-8.69-21.62,1.29,5.46,2.4,12.91,3.28,21.78,1.77-.56,3.59-.58,5.41-.16Z"/>
  <path class="cls-7" d="M88,78.93c-.91-.21-1.81-.44-2.7-.71-.29-.09-.58-.19-.87-.28.38,16.21.18,33.84-.7,51.24,1.48,3.22,2.73,6.62,3.7,10.17-.49-24.84.1-44.55.57-60.41Z"/>
  <path class="cls-3" d="M8.48,119.04c.37-.65.74-1.29,1.11-1.9-.38.62-.75,1.25-1.11,1.9Z"/>
  <path class="cls-3" d="M9.7,116.97c.42-.68.85-1.35,1.28-2-.43.65-.86,1.31-1.28,2Z"/>
  <path class="cls-3" d="M5.92,124.06c.37-.81.75-1.59,1.14-2.36-.39.77-.77,1.55-1.14,2.36Z"/>
  <path class="cls-3" d="M7.31,121.23c.32-.63.65-1.24.98-1.84-.33.6-.66,1.21-.98,1.84Z"/>
  <path class="cls-8" d="M7.06,121.7c.08-.16.16-.31.25-.47-.08.16-.17.31-.25.47Z"/>
  <path class="cls-8" d="M9.6,117.13c.03-.05.07-.11.1-.16-.03.05-.07.11-.1.16Z"/>
  <polygon class="cls-8" points="10.98 114.97 10.98 114.97 10.98 114.97 10.98 114.97"/>
  <path class="cls-8" d="M8.28,119.39c.07-.12.13-.23.2-.35-.07.12-.13.23-.2.35Z"/>
  <path class="cls-8" d="M10.98,114.97c-.43.65-.86,1.31-1.28,2-.03.05-.07.11-.1.16-.38.62-.75,1.25-1.11,1.9-.07.12-.13.23-.2.35-.33.6-.66,1.22-.98,1.84-.08.16-.17.31-.25.47-.39.77-.77,1.55-1.14,2.36,9.49,43.95,20.98,69.59,32.3,81.82-13.9-23.49-22.69-57.94-27.24-90.91,0,0,0,0,0,0Z"/>
  <path class="cls-5" d="M9.02,33.62C-.45,50.26-3.97,78.24,5.92,124.06c1.55-3.38,3.25-6.4,5.06-9.09-4.5-32.56-4.87-63.67-1.96-81.35Z"/>
  <path class="cls-3" d="M52.16,7.49C45.63-.3,37.8-1.33,30.33,1.29,25.18,11.92,14.44,27.12,3.41,31.3c-1.35,5.86.31,10.17,6.48,10.11,18.37-.18,50.12-24.54,42.26-33.92Z"/>
  <path class="cls-8" d="M30.33,1.29C17.54,5.77,5.79,20.95,3.41,31.3,14.44,27.12,25.18,11.92,30.33,1.29Z"/>
</svg>