<?xml version="1.0" encoding="UTF-8"?>
<svg id="Layer_2" data-name="Layer 2" xmlns="http://www.w3.org/2000/svg" viewBox="0 0 110.3 151.53">
  <defs>
    <style>
      .cls-1, .cls-2 {
        fill: #2c2e81;
      }

      .cls-1, .cls-2, .cls-3 {
        stroke: #2c2e81;
        stroke-miterlimit: 10;
      }

      .cls-2 {
        stroke-width: 3px;
      }

      .cls-3 {
        fill: none;
      }
    </style>
  </defs>
  <g id="datavisualisatie">
    <g>
      <g>
        <line class="cls-2" x1="7.13" y1="16.46" x2="7.13" y2="103.75"/>
        <line class="cls-2" y1="95.93" x2="12.91" y2="95.93"/>
        <ellipse class="cls-1" cx="6.96" cy="10.01" rx="4.58" ry="9.51"/>
      </g>
      <g>
        <line class="cls-2" x1="92.46" y1="22.2" x2="105.54" y2="108.5"/>
        <line class="cls-2" x1="97.31" y1="101.84" x2="110.07" y2="99.91"/>
        <ellipse class="cls-1" cx="91.33" cy="15.84" rx="4.58" ry="9.51" transform="translate(-1.34 13.86) rotate(-8.61)"/>
      </g>
      <path class="cls-3" d="M51.96,45.67c0-2.55-18.48-5.94-18.34-2.04.1,2.89-1.14,11.24-3.19,21.56,2.75,8.02,7.76,18.18,12.32,25.13,5.79-22.54,9.21-43.51,9.21-44.66Z"/>
      <path class="cls-3" d="M30.43,65.2c-1.16,5.83-2.57,12.28-4.15,18.73,7.98,5.8,9.41,17.96,10.64,26.66,2.14-6.56,4.09-13.48,5.83-20.26-4.56-6.95-9.57-17.11-12.32-25.13Z"/>
      <path class="cls-3" d="M84.91,50.08c0-2.55-18.48-5.94-18.34-2.04.1,2.89-1.14,11.24-3.19,21.56,2.75,8.02,7.76,18.18,12.32,25.13,5.79-22.54,9.21-43.51,9.21-44.66Z"/>
      <path class="cls-3" d="M63.38,69.61c-1.16,5.83-2.57,12.28-4.15,18.73,7.98,5.8,9.41,17.96,10.64,26.66,2.14-6.56,4.09-13.48,5.83-20.26-4.56-6.95-9.57-17.11-12.32-25.13Z"/>
      <path class="cls-3" d="M13.09,122.18c-.87,1.27-1.73,2.17-2.56,2.62-7.5,4.08-13.25,19.53,2.04,21.74,4.69.68,9.15-3.28,13.27-9.98-3.44-3.49-7.94-10.58-12.75-14.38Z"/>
      <path class="cls-3" d="M28.69,131.39c2.96-5.91,5.72-13.11,8.23-20.8-1.23-8.7-2.66-20.86-10.64-26.66-3.12,12.77-6.88,25.52-10.52,33.38,2.63,4.63,9.31,9.77,12.93,14.08Z"/>
      <path class="cls-3" d="M45.63,127.14c-.74.98-1.46,1.69-2.16,2.07-7.5,4.08-13.25,19.53,2.04,21.74,4.57.66,8.92-3.08,12.94-9.46-3.49-3.69-8.01-10.74-12.82-14.35Z"/>
      <path class="cls-3" d="M61.36,136.34c3.07-6.01,5.92-13.41,8.5-21.33-1.23-8.7-2.66-20.86-10.64-26.66-3.18,13.01-7.02,26.01-10.73,33.83,2.4,4.62,9.08,9.79,12.86,14.17Z"/>
      <path class="cls-3" d="M15.76,117.31c-.9,1.95-1.8,3.6-2.68,4.87,4.81,3.8,9.3,10.89,12.75,14.38.97-1.58,1.93-3.31,2.86-5.17-3.62-4.31-10.3-9.45-12.93-14.08Z"/>
      <path class="cls-3" d="M48.5,122.17c-.97,2.04-1.93,3.73-2.86,4.97,4.81,3.6,9.33,10.65,12.82,14.35.99-1.57,1.96-3.29,2.91-5.15-3.78-4.37-10.47-9.55-12.86-14.17Z"/>
    </g>
  </g>
</svg>