<?xml version="1.0" encoding="UTF-8"?>
<svg id="Layer_2" data-name="Layer 2" xmlns="http://www.w3.org/2000/svg" viewBox="0 0 212.02 183.59">
  <defs>
    <style>
      .cls-1 {
        fill: #2c2e81;
      }

      .cls-2 {
        fill: #fdb831;
      }

      .cls-3 {
        fill: #882890;
      }
    </style>
  </defs>
  <g id="postkaart">
    <path class="cls-1" d="M67.66,145.77c-.05-.39-.1-.79-.16-1.2-.7-5-1.78-8.97-3.28-12.09.09-.28.15-.62.17-1.01.2-5.11-3.46-8.56-6.95-9.6-2.8-.84-5.46-.18-7.01,1.68-3.07-.06-6.25.46-9.6,1.01-2.28.37-4.65.76-6.94.93-2.29-.13-4.66-.46-6.96-.79-3.33-.47-6.5-.92-9.54-.81-1.59-1.82-4.26-2.43-7.04-1.53-3.46,1.11-7.05,4.64-6.74,9.74.02.32.07.62.15.89-1.47,3.17-2.48,7.2-3.08,12.27-.05.41-.09.82-.14,1.22-1.62,14.93.39,25.16,5.52,28.05.96.54,2,.81,3.06.8,1.59-.02,3.26-.65,4.89-1.89,2.37-1.8,4.07-4.88,5.19-9.4.59-2.38.95-4.82,1.27-6.98.29-1.97.68-4.6,1.12-5.45,6.07-.18,12.5-.25,12.56-.25s6.49-.06,12.57-.01c.46.84.9,3.46,1.24,5.43.36,2.14.77,4.56,1.41,6.92,1.22,4.51,2.98,7.56,5.39,9.32,2.76,2.01,5.59,2.34,7.97.93,5.07-3,6.86-13.27,4.93-28.17Z"/>
    <path class="cls-2" d="M144.61,21.31c-.25-.41-.51-.82-.78-1.24-3.27-5.16-6.44-8.99-9.66-11.68-.04-.36-.14-.76-.32-1.19-2.33-5.73-8.09-7.69-12.45-7.1-3.5.48-6.1,2.53-6.87,5.35-3.41,1.47-6.65,3.63-10.07,5.91-2.33,1.55-4.74,3.16-7.17,4.5-2.59,1-5.37,1.82-8.06,2.61-3.91,1.15-7.62,2.24-10.91,3.87-2.66-1.21-5.9-.55-8.52,1.83-3.26,2.96-5.45,8.63-2.56,14.1.18.35.39.65.61.91-.03,4.23.87,9.17,2.74,15.06.15.48.3.95.46,1.41,5.68,17.25,13.01,27.51,20.1,28.13,1.33.12,2.6-.11,3.77-.65,1.75-.82,3.26-2.35,4.44-4.53,1.71-3.17,2.04-7.41,1.01-12.95-.54-2.91-1.36-5.78-2.09-8.32-.66-2.31-1.55-5.41-1.49-6.56,6.6-3.23,13.64-6.52,13.71-6.56s7.12-3.31,13.84-6.3c.92.69,2.73,3.36,4.07,5.36,1.47,2.17,3.13,4.64,5.01,6.91,3.6,4.36,7.06,6.84,10.6,7.57,4.04.84,7.32-.22,9.24-2.96,4.08-5.84.93-18.05-8.65-33.5Z"/>
    <path class="cls-3" d="M204.77,134.65c-.19-.35-.38-.7-.58-1.06-2.44-4.42-4.87-7.74-7.39-10.12-.02-.3-.08-.63-.2-1-1.64-4.84-6.29-6.76-9.92-6.48-2.92.22-5.16,1.79-5.94,4.07-2.89,1.04-5.67,2.66-8.61,4.37-2,1.16-4.07,2.37-6.15,3.35-2.19.7-4.52,1.23-6.78,1.75-3.28.75-6.4,1.46-9.2,2.65-2.13-1.14-4.84-.75-7.12,1.08-2.84,2.28-4.93,6.85-2.82,11.51.13.3.29.56.46.78-.24,3.49.26,7.61,1.5,12.56.1.4.2.8.31,1.19,3.82,14.53,9.36,23.36,15.18,24.23,1.1.16,2.15.04,3.14-.35,1.48-.59,2.81-1.77,3.89-3.51,1.57-2.53,2.05-6.01,1.49-10.63-.3-2.43-.83-4.84-1.31-6.97-.43-1.94-1.01-4.54-.9-5.49,5.61-2.34,11.59-4.7,11.65-4.72s6.04-2.38,11.73-4.5c.73.62,2.08,2.91,3.09,4.63,1.1,1.87,2.35,3.99,3.79,5.96,2.75,3.78,5.48,6,8.36,6.78,3.29.89,6.05.19,7.77-1.98,3.66-4.61,1.67-14.85-5.46-28.08Z"/>
  </g>
</svg>