<?xml version="1.0" encoding="UTF-8"?>
<svg id="Layer_2" data-name="Layer 2" xmlns="http://www.w3.org/2000/svg" viewBox="0 0 279.8 157.91">
  <defs>
    <style>
      .cls-1, .cls-2 {
        fill: #2c2e81;
      }

      .cls-3 {
        fill: #fff;
      }

      .cls-3, .cls-4, .cls-5, .cls-6, .cls-7, .cls-8 {
        stroke: #2c2e81;
        stroke-miterlimit: 10;
      }

      .cls-3, .cls-8 {
        stroke-width: 1.07px;
      }

      .cls-4 {
        stroke-width: .99px;
      }

      .cls-4, .cls-6, .cls-8 {
        fill: none;
      }

      .cls-5 {
        fill: #231f20;
      }

      .cls-2 {
        font-family: Itim-Regular, Itim;
        font-size: 23.77px;
      }
    </style>
  </defs>
  <g id="datavisualisatie">
    <g>
      <path class="cls-5" d="M213.34,84.61c-7.22,0-13.09-5.97-13.09-13.3s5.87-13.3,13.09-13.3,13.09,5.97,13.09,13.3-5.87,13.3-13.09,13.3ZM213.34,58.63c-6.88,0-12.48,5.69-12.48,12.68s5.6,12.68,12.48,12.68,12.48-5.69,12.48-12.68-5.6-12.68-12.48-12.68Z"/>
      <path class="cls-5" d="M218.2,71.15c-.88,0-1.86-.18-2.92-.58-.17-.06-.28-.22-.31-.43-.1-.74.84-2.42,2.16-3.41.92-.69,2.39-1.34,4.17-.54,1.08.49,1.5,1.56,1.04,2.67-.54,1.29-2.05,2.28-4.14,2.28ZM215.58,70.03c3.54,1.32,5.67-.15,6.19-1.39.26-.63.21-1.45-.72-1.87-1.66-.75-3.02-.02-3.86.72-1.08.95-1.63,2.19-1.61,2.54Z"/>
      <path class="cls-5" d="M210.3,70.84c-2.43,0-4.1-1.22-4.55-2.69-.36-1.15.16-2.18,1.28-2.56,1.85-.63,3.25.15,4.1.92,1.22,1.11,2,2.88,1.83,3.6-.05.2-.18.35-.35.4h0c-.83.23-1.6.33-2.31.33ZM208.36,65.98c-.35,0-.73.06-1.13.2-.97.33-1.1,1.15-.89,1.8.4,1.29,2.39,2.95,6.03,1.97.05-.34-.38-1.63-1.36-2.68-.59-.63-1.48-1.28-2.65-1.28Z"/>
      <path class="cls-5" d="M213.26,76.25c-.13,0-.27-.05-.42-.14-.7-.47-1.61-2.2-1.67-2.63-.06-.43.51-.53.73-.57.33-.06,3.45-.31,3.62.55h0c.21,1.11-1.41,2.59-2.12,2.78-.05.01-.09.02-.14.02ZM211.82,73.54c.22.57,1.09,2.04,1.44,2.09.43-.12,1.7-1.28,1.65-1.99-.41-.21-2.48-.27-3.09-.09Z"/>
      <path class="cls-5" d="M215.49,79.16c-1.03,0-1.85-.75-2.26-1.69-.44.93-1.3,1.69-2.32,1.69-1.46,0-2.64-1.18-2.64-2.64,0-.17.14-.31.31-.31s.31.14.31.31c0,1.12.91,2.02,2.02,2.02s2.02-1.32,2.02-2.42h.62c0,1.12.85,2.42,1.94,2.42s2.02-.91,2.02-2.02c0-.17.14-.31.31-.31s.31.14.31.31c0,1.46-1.18,2.64-2.64,2.64Z"/>
      <path class="cls-5" d="M214.92,90.42c-1.16,0-2.7-.47-3.96-2.52-.82,1-2.95,2.06-4.66,1.74-.89-.17-2.31-.87-2.34-3.61-1.39.64-3.57-.08-4.8-1.32-1.05-1.06-1.23-2.3-.54-3.41-1.51-.13-2.83-1.49-3.31-2.93-.42-1.25-.3-2.88,1.17-3.91-.89-.7-2.04-2.33-1.97-3.98.04-1.08.63-2.53,3.1-3.47-.65-.86-1.43-2.41-.98-3.83.36-1.14,1.41-1.96,3.13-2.44-.77-1-.98-2.91-.42-4.46.74-2.02,2.56-3.11,5.05-3.05-.1-.47,0-.98.29-1.49.57-.99,1.73-1.69,2.77-1.69.01,0,.03,0,.04,0,.67.01,1.25.31,1.69.86.76-1.18,2.4-2.56,4.05-2.56h.03c.92,0,2.2.45,3.22,2.44.64-.62,1.85-.97,3.38-.96,2.14.02,4.83.79,5.66,2.44.28.56.45,1.43-.21,2.57,1.28.14,4.54.69,5.68,2.81.64,1.2.5,2.68-.42,4.41.84.03,1.82.67,2.5,1.7,1,1.52,1.29,3.95-.95,6.02.83.34,1.49,1.39,1.66,2.77.24,1.96-.61,4.14-3,4.87.28.33.49.82.62,1.44.37,1.77-.02,4.22-1.48,5.45-.66.56-1.8,1.08-3.58.57.03.32-.03.67-.19,1.04-.41.97-1.52,2.11-2.99,2.29-.85.11-2.07-.08-3.31-1.45-.49,1.64-2.2,3.19-4.05,3.57-.25.05-.55.09-.88.09ZM210.9,86.52l.34.63c1.09,2.02,2.66,2.94,4.44,2.57,1.83-.37,3.55-2.1,3.69-3.69l.07-.8.48.64c.95,1.26,2.04,1.86,3.16,1.72,1.17-.14,2.14-1.07,2.49-1.91.19-.46.2-.86.01-1.11l-.66-.86,1.02.39c1.49.57,2.69.48,3.57-.26,1.26-1.07,1.6-3.3,1.27-4.86-.16-.77-.48-1.31-.83-1.42l-1.23-.38,1.27-.22c2.68-.47,3.38-2.63,3.16-4.35-.17-1.37-.93-2.4-1.72-2.35l-1.02.08.81-.63c2.45-1.9,2.3-4.15,1.33-5.63-.7-1.07-1.82-1.68-2.44-1.33l-1.02.56.61-.99c1.1-1.79,1.35-3.26.74-4.39-1.25-2.34-5.64-2.53-5.68-2.53l-.58-.02.34-.47c.64-.88.79-1.68.45-2.38-.68-1.36-3.09-2.09-5.12-2.11-1.6,0-2.81.39-3.17,1.07l-.3.57-.26-.58c-.74-1.67-1.7-2.52-2.88-2.53-1.69,0-3.33,1.7-3.77,2.67l-.26.56-.29-.55c-.34-.64-.83-.97-1.45-.98-.01,0-.02,0-.03,0-.82,0-1.78.59-2.24,1.39-.17.29-.4.85-.1,1.36l.31.51-.6-.05c-3.33-.28-4.5,1.52-4.9,2.62-.61,1.67-.17,3.61.62,4.17l.57.4-.68.15c-1.81.4-2.89,1.13-3.22,2.16-.45,1.43.67,3.07,1.13,3.58l.32.35-.45.15c-2,.65-3.04,1.68-3.1,3.05-.07,1.7,1.42,3.4,2.06,3.67l.61.25-.58.31c-1.31.69-1.8,1.98-1.31,3.44.48,1.41,1.85,2.73,3.32,2.49l.89-.15-.61.66c-1.25,1.34-.47,2.52.11,3.1,1.18,1.19,3.47,1.86,4.47.95l.56-.51-.04.75c-.08,1.45.17,3.25,1.83,3.57,1.71.32,4-1.05,4.26-1.83l.23-.68Z"/>
      <path class="cls-5" d="M226.1,61.65s-.02,0-.03,0c-.17-.02-.29-.17-.28-.34.19-1.95-.11-3.22-.92-3.79-.99-.71-2.59-.22-3.75.32-.15.07-.34,0-.41-.15-.07-.15,0-.34.15-.41,1.88-.87,3.39-.96,4.37-.26.99.71,1.39,2.17,1.17,4.36-.02.16-.15.28-.31.28Z"/>
      <path class="cls-5" d="M204.28,59.01s-.02,0-.04,0c-.17-.02-.29-.17-.27-.34.13-1.13,1.19-2.26,2.56-2.75,1.44-.51,2.88-.22,3.94.8.12.12.13.31,0,.44-.12.12-.31.13-.44,0-.89-.86-2.1-1.1-3.31-.67-1.14.41-2.05,1.35-2.16,2.24-.02.16-.15.27-.31.27Z"/>
      <path class="cls-5" d="M236.82,106.68c-2.81,0-5.41-.06-6.14-.2-1.02.08-2.03-.58-2.76-1.82-1.19-1.99-1.57-5.39.04-7.77,1.03-1.52,3.27-3.17,8.02-2.4.17.03.28.19.25.35-.03.17-.19.28-.35.25-3.51-.57-6.07.17-7.41,2.14-1.47,2.16-1.11,5.28-.02,7.11.62,1.04,1.43,1.6,2.22,1.51h.05s.05,0,.05,0c1.58.35,13.11.2,14.25-.06,6.47-7.58,1.72-16.73-.63-20.32-3.95-6.04-9.46-9.75-11.74-9.05-.16.05-.33-.04-.39-.2-.05-.16.04-.33.2-.39,2.81-.88,8.62,3.47,12.44,9.3,2.43,3.72,7.36,13.22.53,21.12l-.05.05-.06.03c-.46.2-4.67.32-8.5.32Z"/>
      <path class="cls-5" d="M223.51,107.05h-.18l-.09-.16c-1.05-1.97-1.24-3.5-.56-4.53.72-1.08,2.25-1.34,3.44-1.23.52.05,1.18.18,1.32.52.07.16,0,.34-.16.4-.14.06-.3,0-.38-.12-.28-.19-2.27-.5-3.36.38-1.13.92-.57,2.71.15,4.11,1.89-.01,5.62-.18,6.92-.56.16-.05.33.05.38.21s-.05.33-.21.38c-1.48.44-5.62.58-7.28.58Z"/>
      <path class="cls-5" d="M225.86,106.85s-.07,0-.1-.02c-.84-.3-1.99-2.08-1.65-3.29.2-.72.96-1.48,3.4-.99.17.03.27.2.24.36-.03.17-.2.28-.36.24-.9-.18-2.44-.35-2.69.55-.25.91.73,2.36,1.27,2.55.16.06.24.23.18.39-.05.13-.16.2-.29.2Z"/>
      <path class="cls-5" d="M211.81,107.32h0c-.66-.02-1.19-.45-1.46-1.19-.33-.9-.25-2.25.57-2.99.37-.33,1.2-.79,2.62-.1.15.07.22.26.14.41-.07.15-.26.22-.41.14-.57-.28-1.37-.51-1.94,0-.59.53-.67,1.62-.41,2.32.11.29.37.77.9.79.17,0,.3.15.3.32,0,.17-.14.3-.31.3Z"/>
      <path class="cls-5" d="M257.03,78.18c-.17,0-.35-.01-.53-.04h0c-.83-.12-1.65-.51-1.95-.92-1.1-1.51-1.53-3.61-1.16-5.63l.15-.83.42.73c.27.48.66.83,1.19,1.08.02-.6-.12-1.11-.43-1.57l-.26-.4.48-.07c1.21-.19,2.28.04,3.08.64.86.65,1.4,1.7,1.58,3.05.02.14.03.3.03.49.07.34.07.74-.01,1.21-.01.08-.03.16-.05.23v.04c-.05.16-.22.26-.38.22-.16-.04-.27-.21-.22-.37v-.04c.03-.06.04-.12.05-.19.07-.4.08-.74.01-1v-.04s0-.04,0-.04c0-.17,0-.32-.02-.44-.15-1.18-.62-2.1-1.34-2.64-.58-.44-1.31-.63-2.17-.57.27.58.35,1.23.25,1.97l-.05.38-.36-.13c-.58-.21-1.05-.5-1.42-.88-.13,1.62.28,3.23,1.15,4.43.13.18.62.47,1.25.62v-.02c.11.03.21.06.31.08.31.04.62.04.9-.01.17-.03.33.08.36.24.03.17-.08.33-.24.36-.19.04-.39.06-.6.06Z"/>
      <path class="cls-5" d="M248.17,99.44l.12-1.95c.03-.44,0-.64-.02-.88-.01-.13-.03-.26-.04-.45v-.04s0-.04,0-.04c.53-2.55,3.08-4.24,5.55-5.87,2.5-1.66,5.09-3.37,5.57-5.94.33-1.77-.34-3.81-2.05-6.25v-.02s-.26-.38-.26-.38l.44-.09c.13-.02.23-.05.33-.09.56-.21.93-.68,1.11-1.39l.17-.67.39.57c.17.25.32.51.47.79,4.77,9.18-1.77,13.61-6.55,16.84-2.14,1.45-3.99,2.69-4.52,4.05l-.72,1.82ZM248.86,96.16c0,.1.01.19.02.26.88-1.14,2.44-2.19,4.18-3.37,4.84-3.27,10.87-7.35,6.35-16.05h0c-.03-.06-.07-.13-.1-.19-.34.69-.84,1.02-1.25,1.18,1.64,2.44,2.27,4.52,1.92,6.38-.53,2.82-3.23,4.61-5.84,6.34-2.46,1.63-4.79,3.17-5.28,5.45Z"/>
      <path class="cls-5" d="M219.39,103.22c-.05,0-.1-.01-.15-.04-.15-.08-.2-.27-.12-.42.07-.13.15-.26.22-.39,1.12-1.91,2.27-3.88-.93-13.84-.05-.16.04-.34.2-.39.16-.05.34.04.39.2,3.29,10.22,2.06,12.32.88,14.34-.07.13-.15.25-.22.38-.06.1-.16.16-.27.16Z"/>
      <path class="cls-5" d="M214,102.32c-.08,0-.16-.03-.23-.1-.12-.12-.11-.32.02-.44,1.39-1.3,2.51-4.34-.07-11.49l-.04-.1c-.06-.16.03-.34.19-.39.16-.06.34.03.39.19l.04.1c2.16,5.99,2.13,10.08-.09,12.15-.06.06-.13.08-.21.08Z"/>
      <path class="cls-5" d="M212.64,107.42c-1.26,0-2.3-.06-3.25-.13h-.11s-.08-.09-.08-.09c-1.49-1.47-1.06-3.6.13-4.94,1.13-1.27,3.08-1.92,4.87-.49.13.11.16.3.05.43-.11.13-.3.16-.43.05-1.58-1.26-3.16-.56-4.03.42-.97,1.1-1.35,2.81-.24,4.01,1.32.09,2.83.16,4.86.08.32-.01.62-.02.92-.03,1.61-.05,2.88-.09,3.39-.59.82-.78.55-2.17.42-2.83-.04-.22-.06-.33-.05-.43.02-.17.17-.3.34-.28.17.02.29.16.28.33,0,.04.03.16.05.27.14.71.46,2.38-.6,3.39-.68.65-1.99.7-3.8.76-.29,0-.6.02-.91.03-.65.03-1.24.04-1.8.04Z"/>
      <ellipse class="cls-1" cx="218.7" cy="68.62" rx="1.65" ry="2.25" transform="translate(-9.81 50.68) rotate(-12.93)"/>
      <ellipse class="cls-1" cx="209.21" cy="68.18" rx="2.25" ry="1.65" transform="translate(40.36 209.27) rotate(-57.93)"/>
      <path class="cls-5" d="M230.18,95.4c-.11,0-.22-.06-.27-.16-1.81-3.35-4.23-3.92-6.56-4.47-1.64-.39-3.19-.76-4.48-2.02-.12-.12-.12-.31,0-.44.12-.12.31-.12.44,0,1.17,1.14,2.64,1.49,4.19,1.86,2.35.56,5.01,1.19,6.96,4.78.08.15.03.34-.12.42-.05.03-.1.04-.15.04Z"/>
      <path class="cls-5" d="M72.36,64.54l-.4-.95c2.79-1.17,3.08-2.02,3.1-2.25.03-.31-.27-.59-.53-.76-1.26-.85-4.05-1.16-5.15-.59l-.48-.91c1.43-.75,4.62-.42,6.2.64.89.6,1.03,1.27.98,1.72-.11,1.08-1.33,2.09-3.73,3.1Z"/>
      <path class="cls-5" d="M37.75,64.27c-3.37-2.04-4.03-3.62-3.99-4.58.03-.72.45-1.32,1.19-1.68,1.36-.67,3.95-.51,6.26,1.11l-.59.84c-1.96-1.37-4.15-1.55-5.22-1.03-.4.2-.61.47-.62.81-.02.35.19,1.66,3.5,3.66l-.53.88Z"/>
      <path class="cls-5" d="M48.7,73.09c-2.11,0-3.77-1.14-3.77-2.6s1.65-2.6,3.77-2.6,3.77,1.14,3.77,2.6-1.65,2.6-3.77,2.6ZM48.7,68.91c-1.49,0-2.74.72-2.74,1.58s1.25,1.58,2.74,1.58,2.74-.72,2.74-1.58-1.25-1.58-2.74-1.58Z"/>
      <path class="cls-5" d="M62.18,73.09c-2.11,0-3.77-1.14-3.77-2.6s1.65-2.6,3.77-2.6,3.77,1.14,3.77,2.6-1.65,2.6-3.77,2.6ZM62.18,68.91c-1.49,0-2.74.72-2.74,1.58s1.25,1.58,2.74,1.58,2.74-.72,2.74-1.58-1.25-1.58-2.74-1.58Z"/>
      <ellipse class="cls-1" cx="46.74" cy="55.64" rx="2.68" ry="3.19"/>
      <ellipse class="cls-1" cx="63.35" cy="55.76" rx="2.78" ry="3.31"/>
      <path class="cls-5" d="M54.92,93.62c-10.48,0-18.69-3.92-18.75-8.94-.65-3.21-.49-5.81.46-7.72l.92.46c-.84,1.69-.97,4.14-.36,7.1v.1c.01,4.32,8.13,7.97,17.73,7.97s17.72-3.65,17.72-7.97l.02-.15c.38-1.27.45-5.92-.29-6.7l.75-.7c1.19,1.26.87,6.38.55,7.63-.08,5.01-8.29,8.92-18.75,8.92Z"/>
      <path class="cls-6" d="M57.35,59.53c0,3.88,2.53,7.04,5.64,7.04,2.41,0,4.46-1.89,5.27-4.55-2.92-1.8-6.68-3.02-10.87-3.37-.03.29-.05.58-.05.88Z"/>
      <path class="cls-6" d="M62.99,52.49c-2.58,0-4.76,2.18-5.43,5.14,4.17.36,7.95,1.57,10.95,3.36.08-.47.13-.96.13-1.47,0-3.88-2.53-7.04-5.64-7.04Z"/>
      <path class="cls-6" d="M47.08,66.57c3.11,0,5.64-3.16,5.64-7.04,0-.31-.02-.61-.05-.9-4.18.32-7.95,1.51-10.9,3.28.78,2.71,2.86,4.67,5.31,4.67Z"/>
      <path class="cls-6" d="M47.08,52.49c-3.11,0-5.64,3.16-5.64,7.04,0,.46.04.9.11,1.34,3.02-1.75,6.8-2.92,10.96-3.26-.67-2.95-2.85-5.12-5.42-5.12Z"/>
      <path class="cls-7" d="M62.99,52.49c3.11,0,5.64,3.16,5.64,7.04,0,.5-.04.99-.13,1.47.31.19.63.37.93.57.14-.65.22-1.33.22-2.04,0-4.45-2.99-8.06-6.67-8.06-3.12,0-5.73,2.6-6.46,6.1.35.02.69.04,1.03.07.67-2.96,2.84-5.14,5.43-5.14Z"/>
      <path class="cls-7" d="M41.43,59.53c0-3.88,2.53-7.04,5.64-7.04,2.58,0,4.75,2.17,5.42,5.12.34-.03.69-.04,1.03-.06-.73-3.49-3.35-6.09-6.46-6.09-3.68,0-6.67,3.62-6.67,8.06,0,.66.07,1.29.2,1.91.3-.2.62-.39.93-.57-.07-.43-.11-.88-.11-1.34Z"/>
      <path class="cls-7" d="M69.44,61.57c-.08.36-.17.71-.28,1.04,3.23,2.27,5.23,5.31,5.23,8.65,0,.44-.04.88-.12,1.36l1.01.17c.09-.53.13-1.03.13-1.52,0-3.78-2.28-7.21-5.97-9.7Z"/>
      <path class="cls-7" d="M57.4,58.65c4.18.35,7.95,1.57,10.87,3.37.1-.33.19-.67.25-1.02-3-1.79-6.77-3-10.95-3.36-.07.33-.13.67-.16,1.01Z"/>
      <path class="cls-7" d="M34.42,71.26c0,.91.14,1.83.41,2.73l.98-.29c-.24-.81-.36-1.62-.36-2.44,0-3.41,2.07-6.5,5.42-8.79-.11-.33-.2-.68-.27-1.03-3.81,2.5-6.18,5.98-6.18,9.83Z"/>
      <path class="cls-7" d="M41.77,61.9c2.95-1.77,6.72-2.96,10.9-3.28-.04-.35-.09-.68-.17-1.01-4.17.33-7.94,1.5-10.96,3.26.06.36.14.7.23,1.04Z"/>
      <path class="cls-7" d="M54.92,57.51c-.47,0-.92.03-1.38.05.07.33.13.67.16,1.02.41-.02.81-.04,1.22-.04.49,0,.97.02,1.45.05.03-.35.09-.69.16-1.02-.53-.03-1.07-.05-1.61-.05Z"/>
      <path class="cls-7" d="M68.51,61c-.06.35-.15.69-.25,1.02.31.19.6.39.89.59.12-.34.21-.69.28-1.04-.3-.2-.61-.38-.93-.57Z"/>
      <path class="cls-7" d="M57.56,57.64c-.34-.03-.68-.05-1.03-.07-.07.33-.12.67-.16,1.02.34.02.69.04,1.02.07.03-.35.09-.68.16-1.01Z"/>
      <path class="cls-7" d="M52.5,57.61c.07.33.13.67.17,1.01.34-.03.68-.04,1.03-.05-.03-.35-.09-.69-.16-1.02-.35.02-.69.03-1.03.06Z"/>
      <path class="cls-7" d="M41.54,60.87c-.32.19-.63.37-.93.57.07.35.16.7.27,1.03.29-.2.59-.38.9-.57-.1-.34-.18-.68-.23-1.04Z"/>
      <path class="cls-5" d="M56.14,120.52c-19.22,0-34.86-11.75-34.86-26.2,0-8.27,5.03-15.88,13.81-20.89l.52-.29.17.57c.64,2.13,2.12,4.14,4.29,5.81.57.44,1.22.87,1.92,1.28l.34.2-.13.37c-.39,1.1-.91,3.23-.1,5.16.67,1.58,2.23.98,2.4.91l.13-.04c.05-.32-.19-1.3-.38-2.03-.22-.88-.47-1.87-.61-2.92l-.11-.82.76.33c3.17,1.36,6.84,2.07,10.62,2.07,4.65,0,9.15-1.09,12.68-3.08l.74-.41-.03.85c-.05,1.41-.41,2.84-.7,3.99-.18.73-.43,1.7-.38,2.03h.03l.1.04c.17.07,1.73.67,2.4-.91,1.06-2.51-.12-5.34-.51-6.15l-.17-.36.43-.32c.09-.06.17-.12.26-.19,2.55-1.96,4.12-4.35,4.54-6.89l.1-.63.57.28c10.03,4.85,16.01,13.09,16.01,22.04,0,14.45-15.64,26.2-34.86,26.2ZM35.06,74.55c-8.16,4.83-12.83,12.01-12.83,19.78,0,13.93,15.21,25.26,33.91,25.26s33.91-11.33,33.91-25.26c0-8.42-5.57-16.2-14.93-20.92-.59,2.55-2.23,4.91-4.77,6.87-.03.02-.05.04-.08.06.52,1.21,1.45,4,.36,6.56-.31.72-.78,1.21-1.4,1.47-.92.37-1.86.08-2.15-.02-.3-.03-.48-.18-.58-.31-.4-.52-.17-1.46.19-2.89.22-.87.48-1.91.61-2.95-3.54,1.8-7.9,2.79-12.37,2.79-3.6,0-7.11-.63-10.21-1.83.13.7.3,1.38.46,1.99.36,1.43.6,2.37.19,2.89-.1.13-.28.28-.58.31-.29.1-1.24.39-2.15.02-.63-.25-1.1-.75-1.4-1.47-.85-2.02-.45-4.17-.05-5.47-.61-.37-1.18-.76-1.69-1.15-2.14-1.64-3.66-3.61-4.43-5.72Z"/>
      <path class="cls-5" d="M68.06,81.78l-.49-.81,1.84-1.19.53.78c-.62.45-1.25.86-1.89,1.22Z"/>
      <path class="cls-5" d="M54.92,85.02c-3.91,0-7.72-.74-11.01-2.15-.85-.36-1.66-.77-2.42-1.21-.74-.43-1.42-.89-2.03-1.35-2.33-1.79-3.93-3.98-4.63-6.31l.98-.29c.64,2.13,2.11,4.13,4.27,5.79.57.44,1.22.87,1.92,1.28.72.42,1.5.81,2.31,1.15,3.16,1.35,6.83,2.07,10.61,2.07,4.64,0,9.14-1.09,12.66-3.08l1.91-1.24c.09-.06.17-.12.26-.19,2.54-1.96,4.11-4.33,4.52-6.87l1.01.17c-.46,2.8-2.15,5.4-4.91,7.52-.09.07-.19.14-.28.21l-.11.08-1.87,1.2c-3.7,2.08-8.38,3.22-13.19,3.22Z"/>
      <path class="cls-5" d="M43.62,88.59c-.32,0-.66-.05-1.01-.19-.64-.26-1.12-.76-1.42-1.49-.94-2.23-.36-4.64.08-5.87l.21-.59.54.31c.72.42,1.5.81,2.31,1.15l.27.12.04.29c.13.99.37,1.95.59,2.81.38,1.49.6,2.39.19,2.92-.15.19-.36.3-.61.33-.19.07-.64.21-1.17.21ZM42.04,81.97c-.33,1.17-.6,2.93.09,4.55h0c.65,1.54,2.18.96,2.35.89l.11-.04c.03-.35-.2-1.28-.38-1.98-.2-.8-.43-1.69-.57-2.63-.55-.24-1.08-.51-1.6-.78Z"/>
      <path class="cls-5" d="M68.23,88.59c-.54,0-.98-.14-1.17-.21-.25-.03-.46-.14-.61-.33-.41-.53-.19-1.43.19-2.92.28-1.11.62-2.48.68-3.79v-.29s.26-.14.26-.14c.61-.34,1.21-.73,1.79-1.15l.5-.36.27.56c.43.9,1.75,4.07.53,6.96-.31.73-.79,1.23-1.43,1.49-.34.14-.69.19-1,.19ZM67.37,87.4c.17.07,1.7.65,2.35-.89.88-2.08.21-4.38-.26-5.56-.37.25-.75.49-1.13.71-.09,1.32-.42,2.64-.69,3.71-.18.7-.41,1.63-.38,1.98h0l.1.04Z"/>
      <rect class="cls-4" x=".5" y=".5" width="278.49" height="156.92"/>
      <path class="cls-8" d="M111.5,130.06v-65.72c4.19-17.29,39.85-24.08,46.19,0,.34-.17,0,65.38,0,65.38"/>
      <polygon class="cls-3" points="111.5 130.06 .72 130.06 .72 94.09 111.47 94.1 111.5 130.06"/>
      <polygon class="cls-3" points="158.08 129.72 279.27 129.72 279.27 94.09 158.02 94.09 158.08 129.72"/>
      <text class="cls-2" transform="translate(115.73 53.25) rotate(-29.98) scale(.97 1)"><tspan x="0" y="0">Z</tspan></text>
      <text class="cls-2" transform="translate(125.51 46.83) rotate(-4.84) scale(.97 1)"><tspan x="0" y="0">O</tspan></text>
      <text class="cls-2" transform="translate(140.5 44.8) rotate(28.79) scale(.97 1)"><tspan x="0" y="0">O</tspan></text>
    </g>
  </g>
</svg>